<svg  viewBox="0 0 460 331" fill="none" xmlns="http://www.w3.org/2000/svg">
<g clip-path="url(#clip0_15_5)">
<path d="M452 0H8C3.58172 0 0 3.58172 0 8V323C0 327.418 3.58172 331 8 331H452C456.418 331 460 327.418 460 323V8C460 3.58172 456.418 0 452 0Z" fill="#1E1E1E"/>
<path d="M460 20H0V40H460V20Z" fill="#252526"/>
<path d="M116 20H0V40H116V20Z" fill="var(--style-tab-active-background)"/>
<path d="M40.7485 33.1429V27.1429H41.6392V28.0804H41.7173C41.8423 27.7601 42.0441 27.5114 42.3228 27.3343C42.6014 27.1546 42.936 27.0648 43.3267 27.0648C43.7225 27.0648 44.0519 27.1546 44.3149 27.3343C44.5806 27.5114 44.7876 27.7601 44.936 28.0804H44.9985C45.1522 27.7705 45.3826 27.5244 45.6899 27.3421C45.9972 27.1572 46.3657 27.0648 46.7954 27.0648C47.3319 27.0648 47.7707 27.2327 48.1118 27.5687C48.453 27.902 48.6235 28.4215 48.6235 29.1273V33.1429H47.7017V29.1273C47.7017 28.6845 47.5806 28.3681 47.3384 28.178C47.0962 27.9879 46.811 27.8929 46.4829 27.8929C46.061 27.8929 45.7342 28.0205 45.5024 28.2757C45.2707 28.5283 45.1548 28.8486 45.1548 29.2366V33.1429H44.2173V29.0335C44.2173 28.6924 44.1066 28.4176 43.8853 28.2093C43.6639 27.9984 43.3787 27.8929 43.0298 27.8929C42.7902 27.8929 42.5662 27.9567 42.3579 28.0843C42.1522 28.2119 41.9855 28.389 41.8579 28.6155C41.7329 28.8395 41.6704 29.0986 41.6704 29.3929V33.1429H40.7485ZM52.0747 33.2835C51.6945 33.2835 51.3494 33.2119 51.0396 33.0687C50.7297 32.9228 50.4836 32.7132 50.3013 32.4398C50.119 32.1637 50.0278 31.8304 50.0278 31.4398C50.0278 31.096 50.0955 30.8174 50.231 30.6038C50.3664 30.3877 50.5474 30.2184 50.7739 30.096C51.0005 29.9736 51.2505 29.8825 51.5239 29.8226C51.8 29.7601 52.0773 29.7106 52.356 29.6741C52.7205 29.6273 53.0161 29.5921 53.2427 29.5687C53.4718 29.5426 53.6385 29.4997 53.7427 29.4398C53.8494 29.3799 53.9028 29.2757 53.9028 29.1273V29.096C53.9028 28.7106 53.7974 28.4111 53.5864 28.1976C53.3781 27.984 53.0617 27.8773 52.6372 27.8773C52.1971 27.8773 51.8521 27.9736 51.6021 28.1663C51.3521 28.359 51.1763 28.5648 51.0747 28.7835L50.1997 28.471C50.356 28.1064 50.5643 27.8226 50.8247 27.6194C51.0877 27.4137 51.3742 27.2705 51.6841 27.1898C51.9966 27.1064 52.3039 27.0648 52.606 27.0648C52.7987 27.0648 53.02 27.0882 53.27 27.1351C53.5226 27.1793 53.7661 27.2718 54.0005 27.4124C54.2375 27.553 54.4341 27.7653 54.5903 28.0491C54.7466 28.333 54.8247 28.7132 54.8247 29.1898V33.1429H53.9028V32.3304H53.856C53.7935 32.4606 53.6893 32.5999 53.5435 32.7484C53.3976 32.8968 53.2036 33.0231 52.9614 33.1273C52.7192 33.2314 52.4237 33.2835 52.0747 33.2835ZM52.2153 32.4554C52.5799 32.4554 52.8872 32.3838 53.1372 32.2405C53.3898 32.0973 53.5799 31.9124 53.7075 31.6859C53.8377 31.4593 53.9028 31.221 53.9028 30.971V30.1273C53.8638 30.1741 53.7778 30.2171 53.645 30.2562C53.5148 30.2926 53.3638 30.3252 53.1919 30.3538C53.0226 30.3799 52.8573 30.4033 52.6958 30.4241C52.5369 30.4424 52.408 30.458 52.3091 30.471C52.0695 30.5023 51.8455 30.553 51.6372 30.6234C51.4315 30.6911 51.2648 30.7939 51.1372 30.9319C51.0122 31.0674 50.9497 31.2523 50.9497 31.4866C50.9497 31.8069 51.0682 32.0491 51.3052 32.2132C51.5448 32.3747 51.8481 32.4554 52.2153 32.4554ZM56.5073 33.1429V27.1429H57.4292V33.1429H56.5073ZM56.9761 26.1429C56.7964 26.1429 56.6414 26.0817 56.5112 25.9593C56.3836 25.8369 56.3198 25.6898 56.3198 25.5179C56.3198 25.346 56.3836 25.1989 56.5112 25.0765C56.6414 24.9541 56.7964 24.8929 56.9761 24.8929C57.1558 24.8929 57.3094 24.9541 57.437 25.0765C57.5672 25.1989 57.6323 25.346 57.6323 25.5179C57.6323 25.6898 57.5672 25.8369 57.437 25.9593C57.3094 26.0817 57.1558 26.1429 56.9761 26.1429ZM60.0396 29.5335V33.1429H59.1177V27.1429H60.0083V28.0804H60.0864C60.2271 27.7757 60.4406 27.5309 60.7271 27.346C61.0135 27.1585 61.3833 27.0648 61.8364 27.0648C62.2427 27.0648 62.5981 27.1481 62.9028 27.3148C63.2075 27.4788 63.4445 27.7288 63.6138 28.0648C63.783 28.3981 63.8677 28.82 63.8677 29.3304V33.1429H62.9458V29.3929C62.9458 28.9215 62.8234 28.5543 62.5786 28.2913C62.3338 28.0257 61.9979 27.8929 61.5708 27.8929C61.2765 27.8929 61.0135 27.9567 60.7817 28.0843C60.5526 28.2119 60.3716 28.3981 60.2388 28.6429C60.106 28.8877 60.0396 29.1845 60.0396 29.5335ZM66.2241 33.2054C66.0314 33.2054 65.866 33.1364 65.728 32.9984C65.59 32.8603 65.521 32.695 65.521 32.5023C65.521 32.3095 65.59 32.1442 65.728 32.0062C65.866 31.8681 66.0314 31.7991 66.2241 31.7991C66.4168 31.7991 66.5822 31.8681 66.7202 32.0062C66.8582 32.1442 66.9272 32.3095 66.9272 32.5023C66.9272 32.6299 66.8947 32.747 66.8296 32.8538C66.7671 32.9606 66.6825 33.0465 66.5757 33.1116C66.4715 33.1741 66.3543 33.2054 66.2241 33.2054ZM68.5815 27.1429H69.5034V33.5804C69.5034 33.9502 69.4396 34.2705 69.312 34.5413C69.187 34.8122 68.9969 35.0218 68.7417 35.1702C68.4891 35.3187 68.1701 35.3929 67.7847 35.3929C67.7534 35.3929 67.7222 35.3929 67.6909 35.3929C67.6597 35.3929 67.6284 35.3929 67.5972 35.3929V34.5335C67.6284 34.5335 67.6571 34.5335 67.6831 34.5335C67.7091 34.5335 67.7378 34.5335 67.769 34.5335C68.0503 34.5335 68.256 34.4502 68.3862 34.2835C68.5164 34.1194 68.5815 33.8851 68.5815 33.5804V27.1429ZM69.0347 26.1429C68.855 26.1429 68.7 26.0817 68.5698 25.9593C68.4422 25.8369 68.3784 25.6898 68.3784 25.5179C68.3784 25.346 68.4422 25.1989 68.5698 25.0765C68.7 24.9541 68.855 24.8929 69.0347 24.8929C69.2144 24.8929 69.368 24.9541 69.4956 25.0765C69.6258 25.1989 69.6909 25.346 69.6909 25.5179C69.6909 25.6898 69.6258 25.8369 69.4956 25.9593C69.368 26.0817 69.2144 26.1429 69.0347 26.1429ZM75.4419 28.4866L74.6138 28.721C74.5617 28.583 74.4849 28.4489 74.3833 28.3187C74.2843 28.1859 74.1489 28.0765 73.9771 27.9905C73.8052 27.9046 73.5851 27.8616 73.3169 27.8616C72.9497 27.8616 72.6437 27.9463 72.3989 28.1155C72.1567 28.2822 72.0356 28.4944 72.0356 28.7523C72.0356 28.9814 72.119 29.1624 72.2856 29.2952C72.4523 29.428 72.7127 29.5387 73.0669 29.6273L73.9575 29.846C74.494 29.9762 74.8937 30.1754 75.1567 30.4437C75.4198 30.7093 75.5513 31.0517 75.5513 31.471C75.5513 31.8148 75.4523 32.122 75.2544 32.3929C75.0591 32.6637 74.7856 32.8773 74.4341 33.0335C74.0825 33.1898 73.6737 33.2679 73.2075 33.2679C72.5955 33.2679 72.089 33.1351 71.688 32.8694C71.2869 32.6038 71.033 32.2158 70.9263 31.7054L71.8013 31.4866C71.8846 31.8095 72.0422 32.0517 72.2739 32.2132C72.5083 32.3747 72.8143 32.4554 73.1919 32.4554C73.6216 32.4554 73.9627 32.3642 74.2153 32.1819C74.4705 31.997 74.5981 31.7757 74.5981 31.5179C74.5981 31.3095 74.5252 31.1351 74.3794 30.9944C74.2336 30.8512 74.0096 30.7444 73.7075 30.6741L72.7075 30.4398C72.158 30.3095 71.7544 30.1077 71.4966 29.8343C71.2414 29.5582 71.1138 29.2132 71.1138 28.7991C71.1138 28.4606 71.2088 28.1611 71.3989 27.9007C71.5916 27.6403 71.8534 27.4359 72.1841 27.2874C72.5174 27.139 72.895 27.0648 73.3169 27.0648C73.9106 27.0648 74.3768 27.195 74.7153 27.4554C75.0565 27.7158 75.2987 28.0595 75.4419 28.4866Z" fill="white"/>
<path d="M0 311H460V323C460 327.418 456.418 331 452 331H8.00001C3.58173 331 0 327.418 0 323V311Z" fill="#252526"/>
<path fill-rule="evenodd" clip-rule="evenodd" d="M14.4246 316.011C15.5636 316.082 16.6314 316.651 17.4145 317.434C18.3399 318.431 18.8382 319.641 18.8382 321.065C18.8382 322.204 18.4111 323.272 17.6992 324.197C16.9873 325.051 15.9907 325.692 14.8517 325.906C13.7127 326.119 12.5737 325.977 11.5771 325.407C10.5805 324.838 9.7974 323.984 9.37027 322.916C8.94315 321.848 8.87196 320.638 9.2279 319.57C9.58384 318.431 10.2245 317.506 11.2211 316.865C12.1466 316.224 13.2856 315.939 14.4246 316.011ZM14.7805 325.194C15.706 324.98 16.5602 324.482 17.2009 323.699C17.7704 322.916 18.1263 321.99 18.0551 320.994C18.0551 319.855 17.628 318.716 16.845 317.933C16.1331 317.221 15.2788 316.794 14.2822 316.723C13.3568 316.651 12.3601 316.865 11.5771 317.434C10.794 318.004 10.2245 318.787 9.93977 319.784C9.65502 320.709 9.65502 321.706 10.0821 322.631C10.5093 323.557 11.15 324.268 12.0042 324.767C12.8585 325.265 13.8551 325.407 14.7805 325.194ZM13.9263 320.638L15.6348 318.858L16.1331 319.356L14.4246 321.136L16.1331 322.916L15.6348 323.414L13.9263 321.634L12.2178 323.414L11.7195 322.916L13.428 321.136L11.7195 319.356L12.2178 318.858L13.9263 320.638Z" fill="white"/>
<path d="M25.1038 325.099C24.5687 325.099 24.113 324.954 23.7366 324.663C23.3602 324.369 23.0725 323.944 22.8736 323.388C22.6748 322.829 22.5754 322.154 22.5754 321.364C22.5754 320.578 22.6748 319.906 22.8736 319.35C23.0749 318.791 23.3637 318.365 23.7401 318.072C24.1189 317.776 24.5735 317.628 25.1038 317.628C25.6341 317.628 26.0874 317.776 26.4638 318.072C26.8426 318.365 27.1315 318.791 27.3303 319.35C27.5316 319.906 27.6322 320.578 27.6322 321.364C27.6322 322.154 27.5327 322.829 27.3339 323.388C27.135 323.944 26.8474 324.369 26.4709 324.663C26.0945 324.954 25.6388 325.099 25.1038 325.099ZM25.1038 324.318C25.6341 324.318 26.046 324.062 26.3396 323.551C26.6331 323.04 26.7799 322.311 26.7799 321.364C26.7799 320.734 26.7124 320.198 26.5775 319.755C26.4449 319.312 26.2531 318.975 26.0022 318.743C25.7536 318.511 25.4541 318.395 25.1038 318.395C24.5782 318.395 24.1674 318.654 23.8715 319.173C23.5756 319.689 23.4276 320.419 23.4276 321.364C23.4276 321.993 23.4939 322.528 23.6265 322.969C23.7591 323.409 23.9496 323.744 24.1982 323.974C24.4492 324.203 24.751 324.318 25.1038 324.318Z" fill="white"/>
<path d="M49.2998 325.099C48.7648 325.099 48.309 324.954 47.9326 324.663C47.5562 324.369 47.2686 323.944 47.0697 323.388C46.8708 322.829 46.7714 322.154 46.7714 321.364C46.7714 320.578 46.8708 319.906 47.0697 319.35C47.2709 318.791 47.5597 318.365 47.9362 318.072C48.315 317.776 48.7695 317.628 49.2998 317.628C49.8301 317.628 50.2835 317.776 50.6599 318.072C51.0387 318.365 51.3275 318.791 51.5264 319.35C51.7276 319.906 51.8282 320.578 51.8282 321.364C51.8282 322.154 51.7288 322.829 51.5299 323.388C51.3311 323.944 51.0434 324.369 50.667 324.663C50.2906 324.954 49.8348 325.099 49.2998 325.099ZM49.2998 324.318C49.8301 324.318 50.242 324.062 50.5356 323.551C50.8292 323.04 50.9759 322.311 50.9759 321.364C50.9759 320.734 50.9085 320.198 50.7735 319.755C50.641 319.312 50.4492 318.975 50.1982 318.743C49.9497 318.511 49.6502 318.395 49.2998 318.395C48.7742 318.395 48.3635 318.654 48.0676 319.173C47.7716 319.689 47.6237 320.419 47.6237 321.364C47.6237 321.993 47.69 322.528 47.8225 322.969C47.9551 323.409 48.1457 323.744 48.3943 323.974C48.6452 324.203 48.9471 324.318 49.2998 324.318Z" fill="white"/>
<path fill-rule="evenodd" clip-rule="evenodd" d="M37.0462 316H37.7231L42.7538 325.431L42.4154 326H32.3385L32 325.431L37.0462 316ZM37.3846 316.985L32.9846 325.231H41.7692L37.3846 316.985ZM37.8654 324.462V323.692H36.9038V324.462H37.8654ZM36.9038 322.923V319.846H37.8654V322.923H36.9038Z" fill="white"/>
<path d="M404.977 316.727H405.858V321.926C405.858 322.39 405.773 322.784 405.602 323.109C405.432 323.433 405.192 323.679 404.881 323.847C404.571 324.015 404.205 324.099 403.784 324.099C403.386 324.099 403.032 324.027 402.722 323.883C402.412 323.736 402.168 323.528 401.991 323.258C401.813 322.988 401.724 322.667 401.724 322.295H402.591C402.591 322.501 402.642 322.681 402.744 322.835C402.848 322.987 402.99 323.105 403.17 323.19C403.35 323.276 403.554 323.318 403.784 323.318C404.037 323.318 404.253 323.265 404.43 323.158C404.608 323.052 404.743 322.896 404.835 322.69C404.93 322.481 404.977 322.227 404.977 321.926V316.727ZM409.114 324.128C408.769 324.128 408.455 324.063 408.173 323.933C407.892 323.8 407.668 323.609 407.502 323.361C407.336 323.11 407.254 322.807 407.254 322.452C407.254 322.139 407.315 321.886 407.438 321.692C407.561 321.495 407.726 321.341 407.932 321.23C408.138 321.119 408.365 321.036 408.614 320.982C408.865 320.925 409.117 320.88 409.37 320.847C409.701 320.804 409.97 320.772 410.176 320.751C410.384 320.727 410.536 320.688 410.631 320.634C410.728 320.579 410.776 320.484 410.776 320.349V320.321C410.776 319.971 410.68 319.698 410.489 319.504C410.299 319.31 410.012 319.213 409.626 319.213C409.226 319.213 408.912 319.301 408.685 319.476C408.457 319.651 408.298 319.838 408.205 320.037L407.41 319.753C407.552 319.421 407.741 319.163 407.978 318.979C408.217 318.792 408.478 318.661 408.759 318.588C409.043 318.512 409.323 318.474 409.597 318.474C409.772 318.474 409.974 318.496 410.201 318.538C410.431 318.579 410.652 318.663 410.865 318.79C411.08 318.918 411.259 319.111 411.401 319.369C411.543 319.627 411.614 319.973 411.614 320.406V324H410.776V323.261H410.734C410.677 323.38 410.582 323.506 410.45 323.641C410.317 323.776 410.141 323.891 409.92 323.986C409.7 324.08 409.432 324.128 409.114 324.128ZM409.242 323.375C409.574 323.375 409.853 323.31 410.08 323.18C410.31 323.049 410.483 322.881 410.599 322.675C410.717 322.469 410.776 322.253 410.776 322.026V321.259C410.741 321.301 410.663 321.34 410.542 321.376C410.424 321.409 410.286 321.438 410.13 321.464C409.976 321.488 409.826 321.509 409.679 321.528C409.535 321.545 409.417 321.559 409.327 321.571C409.11 321.599 408.906 321.646 408.717 321.71C408.53 321.771 408.378 321.865 408.262 321.99C408.148 322.113 408.092 322.281 408.092 322.494C408.092 322.786 408.199 323.006 408.415 323.155C408.633 323.302 408.908 323.375 409.242 323.375ZM417.409 318.545L415.392 324H414.54L412.523 318.545H413.432L414.937 322.892H414.994L416.5 318.545H417.409ZM419.954 324.128C419.609 324.128 419.295 324.063 419.013 323.933C418.731 323.8 418.508 323.609 418.342 323.361C418.176 323.11 418.093 322.807 418.093 322.452C418.093 322.139 418.155 321.886 418.278 321.692C418.401 321.495 418.566 321.341 418.772 321.23C418.978 321.119 419.205 321.036 419.453 320.982C419.704 320.925 419.957 320.88 420.21 320.847C420.541 320.804 420.81 320.772 421.016 320.751C421.224 320.727 421.376 320.688 421.471 320.634C421.568 320.579 421.616 320.484 421.616 320.349V320.321C421.616 319.971 421.52 319.698 421.328 319.504C421.139 319.31 420.851 319.213 420.466 319.213C420.065 319.213 419.752 319.301 419.525 319.476C419.297 319.651 419.137 319.838 419.045 320.037L418.25 319.753C418.392 319.421 418.581 319.163 418.818 318.979C419.057 318.792 419.317 318.661 419.599 318.588C419.883 318.512 420.163 318.474 420.437 318.474C420.612 318.474 420.814 318.496 421.041 318.538C421.27 318.579 421.492 318.663 421.705 318.79C421.92 318.918 422.099 319.111 422.241 319.369C422.383 319.627 422.454 319.973 422.454 320.406V324H421.616V323.261H421.574C421.517 323.38 421.422 323.506 421.289 323.641C421.157 323.776 420.98 323.891 420.76 323.986C420.54 324.08 420.271 324.128 419.954 324.128ZM420.082 323.375C420.413 323.375 420.693 323.31 420.92 323.18C421.15 323.049 421.323 322.881 421.439 322.675C421.557 322.469 421.616 322.253 421.616 322.026V321.259C421.581 321.301 421.502 321.34 421.382 321.376C421.263 321.409 421.126 321.438 420.97 321.464C420.816 321.488 420.666 321.509 420.519 321.528C420.374 321.545 420.257 321.559 420.167 321.571C419.949 321.599 419.746 321.646 419.556 321.71C419.369 321.771 419.218 321.865 419.102 321.99C418.988 322.113 418.931 322.281 418.931 322.494C418.931 322.786 419.039 323.006 419.255 323.155C419.472 323.302 419.748 323.375 420.082 323.375ZM428.075 318.545C428.032 318.186 427.859 317.906 427.556 317.707C427.253 317.509 426.882 317.409 426.441 317.409C426.119 317.409 425.838 317.461 425.596 317.565C425.357 317.67 425.17 317.813 425.035 317.995C424.902 318.177 424.836 318.384 424.836 318.616C424.836 318.811 424.882 318.978 424.975 319.117C425.069 319.254 425.19 319.369 425.337 319.462C425.484 319.552 425.637 319.626 425.798 319.685C425.959 319.742 426.107 319.788 426.242 319.824L426.981 320.023C427.17 320.072 427.381 320.141 427.613 320.229C427.847 320.316 428.071 320.436 428.284 320.587C428.5 320.737 428.677 320.928 428.817 321.163C428.957 321.397 429.026 321.685 429.026 322.026C429.026 322.419 428.923 322.774 428.718 323.091C428.514 323.408 428.216 323.66 427.823 323.847C427.432 324.034 426.957 324.128 426.399 324.128C425.878 324.128 425.427 324.044 425.046 323.876C424.667 323.708 424.369 323.473 424.151 323.173C423.935 322.872 423.813 322.523 423.785 322.125H424.694C424.718 322.4 424.81 322.627 424.971 322.807C425.134 322.984 425.34 323.117 425.589 323.205C425.84 323.29 426.11 323.332 426.399 323.332C426.735 323.332 427.037 323.278 427.304 323.169C427.572 323.058 427.784 322.904 427.94 322.707C428.096 322.509 428.174 322.277 428.174 322.011C428.174 321.77 428.107 321.573 427.972 321.422C427.837 321.27 427.659 321.147 427.439 321.053C427.219 320.958 426.981 320.875 426.725 320.804L425.83 320.548C425.262 320.385 424.812 320.152 424.481 319.849C424.15 319.546 423.984 319.149 423.984 318.659C423.984 318.252 424.094 317.897 424.314 317.594C424.537 317.288 424.835 317.052 425.209 316.884C425.585 316.713 426.006 316.628 426.47 316.628C426.938 316.628 427.355 316.712 427.72 316.88C428.084 317.046 428.373 317.273 428.586 317.562C428.802 317.851 428.915 318.179 428.927 318.545H428.075ZM432.577 324.114C432.065 324.114 431.625 323.993 431.256 323.751C430.886 323.51 430.602 323.177 430.403 322.754C430.205 322.33 430.105 321.846 430.105 321.301C430.105 320.747 430.207 320.258 430.411 319.835C430.616 319.408 430.903 319.076 431.27 318.837C431.639 318.595 432.07 318.474 432.562 318.474C432.946 318.474 433.292 318.545 433.599 318.688C433.907 318.83 434.159 319.028 434.356 319.284C434.552 319.54 434.674 319.838 434.722 320.179H433.884C433.82 319.93 433.678 319.71 433.457 319.518C433.24 319.324 432.946 319.227 432.577 319.227C432.25 319.227 431.964 319.312 431.717 319.483C431.473 319.651 431.283 319.889 431.146 320.197C431.011 320.502 430.943 320.861 430.943 321.273C430.943 321.694 431.009 322.061 431.142 322.374C431.277 322.686 431.466 322.929 431.71 323.102C431.956 323.274 432.245 323.361 432.577 323.361C432.795 323.361 432.992 323.323 433.17 323.247C433.347 323.171 433.498 323.062 433.621 322.92C433.744 322.778 433.831 322.608 433.884 322.409H434.722C434.674 322.731 434.557 323.021 434.37 323.279C434.185 323.535 433.94 323.738 433.635 323.89C433.332 324.039 432.979 324.114 432.577 324.114ZM435.947 324V318.545H436.756V319.369H436.813C436.913 319.099 437.093 318.88 437.353 318.712C437.613 318.544 437.907 318.46 438.234 318.46C438.295 318.46 438.372 318.461 438.464 318.464C438.557 318.466 438.627 318.47 438.674 318.474V319.327C438.646 319.32 438.58 319.309 438.479 319.295C438.379 319.278 438.274 319.27 438.163 319.27C437.897 319.27 437.661 319.326 437.452 319.437C437.246 319.546 437.083 319.697 436.962 319.891C436.844 320.083 436.785 320.302 436.785 320.548V324H435.947ZM439.667 324V318.545H440.506V324H439.667ZM440.094 317.636C439.93 317.636 439.789 317.581 439.671 317.469C439.555 317.358 439.497 317.224 439.497 317.068C439.497 316.912 439.555 316.778 439.671 316.667C439.789 316.556 439.93 316.5 440.094 316.5C440.257 316.5 440.397 316.556 440.513 316.667C440.631 316.778 440.69 316.912 440.69 317.068C440.69 317.224 440.631 317.358 440.513 317.469C440.397 317.581 440.257 317.636 440.094 317.636ZM442.04 326.045V318.545H442.85V319.412H442.95C443.011 319.317 443.096 319.196 443.205 319.05C443.317 318.901 443.475 318.768 443.681 318.652C443.889 318.534 444.171 318.474 444.526 318.474C444.986 318.474 445.39 318.589 445.741 318.819C446.091 319.049 446.365 319.374 446.561 319.795C446.758 320.217 446.856 320.714 446.856 321.287C446.856 321.865 446.758 322.365 446.561 322.789C446.365 323.21 446.092 323.537 445.744 323.769C445.396 323.999 444.995 324.114 444.54 324.114C444.19 324.114 443.91 324.056 443.699 323.94C443.488 323.821 443.326 323.687 443.212 323.538C443.099 323.387 443.011 323.261 442.95 323.162H442.879V326.045H442.04ZM442.864 321.273C442.864 321.685 442.925 322.048 443.045 322.363C443.166 322.675 443.343 322.92 443.575 323.098C443.807 323.273 444.091 323.361 444.427 323.361C444.777 323.361 445.07 323.268 445.304 323.084C445.541 322.897 445.718 322.646 445.837 322.331C445.957 322.014 446.018 321.661 446.018 321.273C446.018 320.889 445.959 320.544 445.84 320.236C445.724 319.926 445.548 319.681 445.311 319.501C445.077 319.318 444.782 319.227 444.427 319.227C444.086 319.227 443.799 319.314 443.567 319.487C443.335 319.657 443.16 319.896 443.042 320.204C442.924 320.509 442.864 320.866 442.864 321.273ZM450.506 318.545V319.256H447.68V318.545H450.506ZM448.504 317.239H449.342V322.438C449.342 322.674 449.376 322.852 449.445 322.97C449.516 323.086 449.606 323.164 449.714 323.205C449.826 323.242 449.943 323.261 450.066 323.261C450.158 323.261 450.234 323.257 450.293 323.247C450.353 323.235 450.4 323.226 450.435 323.219L450.606 323.972C450.549 323.993 450.47 324.014 450.368 324.036C450.266 324.059 450.137 324.071 449.981 324.071C449.744 324.071 449.512 324.02 449.285 323.918C449.06 323.817 448.873 323.661 448.724 323.453C448.577 323.245 448.504 322.982 448.504 322.665V317.239Z" fill="white"/>
<path d="M0 8C0 3.58172 3.58172 0 8 0H452C456.418 0 460 3.58172 460 8V20H0V8Z" fill="#3C3C3C"/>
<path d="M67.1484 14V13.2969L71.4609 6.85937H67.1016V6H72.6172V6.70312L68.3047 13.1406H72.6641V14H67.1484ZM76.6797 14.125C76.1016 14.125 75.6029 13.9974 75.1836 13.7422C74.7669 13.4844 74.4453 13.125 74.2188 12.6641C73.9948 12.2005 73.8828 11.6615 73.8828 11.0469C73.8828 10.4323 73.9948 9.89062 74.2188 9.42187C74.4453 8.95052 74.7604 8.58333 75.1641 8.32031C75.5703 8.05469 76.0443 7.92188 76.5859 7.92188C76.8984 7.92188 77.207 7.97396 77.5117 8.07812C77.8164 8.18229 78.0938 8.35156 78.3438 8.58594C78.5938 8.81771 78.793 9.125 78.9414 9.50781C79.0898 9.89062 79.1641 10.362 79.1641 10.9219V11.3125H74.5391V10.5156H78.2266C78.2266 10.1771 78.1589 9.875 78.0234 9.60937C77.8906 9.34375 77.7005 9.13411 77.4531 8.98047C77.2083 8.82682 76.9193 8.75 76.5859 8.75C76.2188 8.75 75.901 8.84115 75.6328 9.02344C75.3672 9.20312 75.1628 9.4375 75.0195 9.72656C74.8763 10.0156 74.8047 10.3255 74.8047 10.6562V11.1875C74.8047 11.6406 74.8828 12.0247 75.0391 12.3398C75.1979 12.6523 75.418 12.8906 75.6992 13.0547C75.9805 13.2161 76.3073 13.2969 76.6797 13.2969C76.9219 13.2969 77.1406 13.263 77.3359 13.1953C77.5339 13.125 77.7044 13.0208 77.8477 12.8828C77.9909 12.7422 78.1016 12.5677 78.1797 12.3594L79.0703 12.6094C78.9766 12.9115 78.819 13.1771 78.5977 13.4062C78.3763 13.6328 78.1029 13.8099 77.7773 13.9375C77.4518 14.0625 77.0859 14.125 76.6797 14.125ZM82.832 14.125C82.332 14.125 81.8906 13.9987 81.5078 13.7461C81.125 13.4909 80.8255 13.1315 80.6094 12.668C80.3932 12.2018 80.2852 11.651 80.2852 11.0156C80.2852 10.3854 80.3932 9.83854 80.6094 9.375C80.8255 8.91146 81.1263 8.55339 81.5117 8.30078C81.8971 8.04818 82.3424 7.92188 82.8477 7.92188C83.2383 7.92188 83.5469 7.98698 83.7734 8.11719C84.0026 8.24479 84.1771 8.39062 84.2969 8.55469C84.4193 8.71615 84.5143 8.84896 84.582 8.95312H84.6602V6H85.582V14H84.6914V13.0781H84.582C84.5143 13.1875 84.418 13.3255 84.293 13.4922C84.168 13.6562 83.9896 13.8034 83.7578 13.9336C83.526 14.0612 83.2174 14.125 82.832 14.125ZM82.957 13.2969C83.3268 13.2969 83.6393 13.2005 83.8945 13.0078C84.1497 12.8125 84.3438 12.543 84.4766 12.1992C84.6094 11.8529 84.6758 11.4531 84.6758 11C84.6758 10.5521 84.6107 10.1602 84.4805 9.82422C84.3503 9.48568 84.1576 9.22266 83.9023 9.03516C83.6471 8.84505 83.332 8.75 82.957 8.75C82.5664 8.75 82.2409 8.85026 81.9805 9.05078C81.7227 9.2487 81.5286 9.51823 81.3984 9.85937C81.2708 10.1979 81.207 10.5781 81.207 11C81.207 11.4271 81.2721 11.8151 81.4023 12.1641C81.5352 12.5104 81.7305 12.7865 81.9883 12.9922C82.2487 13.1953 82.5716 13.2969 82.957 13.2969Z" fill="white"/>
<circle cx="11" cy="10" r="4" fill="#D9D9D9"/>
<circle cx="27" cy="10" r="4" fill="#D9D9D9"/>
<circle cx="44" cy="10" r="4" fill="#D9D9D9"/>

</g>
<defs>
<clipPath id="clip0_15_5">
<rect width="460" height="331" fill="white"/>
</clipPath>
</defs>
</svg>
