<svg viewBox="0 0 460 330" xmlns="http://www.w3.org/2000/svg" font-family="-apple-system, BlinkMacSystemFont, 'Segoe UI', Helvetica, Arial, sans-serif" letter-spacing="0.5">

  <rect id="code" width="460" height="330" rx="8" fill="var(--style-editor-background)" />

  <rect id="tab" x="0" y="20" width="460" height="20" fill="var(--style-tab-bar-background)" />

  <svg x="0" y="20" width="116" height="20">
    <rect id="active-tab" x="0" y="0" width="116" height="20" fill="var(--style-tab-active-background)" />
    <text id="active-tab-text" x="50px" y="10px" text-anchor="middle" dominant-baseline="middle" fill="var(--style-text)" font-size="11">
      <tspan>main.js</tspan>
    </text>
  </svg>

  <path id="header" d="M0 8C0 3.58172 3.58172 0 8 0H452C456.418 0 460 3.58172 460 8V20H0V8Z" fill="var(--style-title-bar-background)" />
  <circle cx="11" cy="10" r="4" fill="grey"/>
  <circle cx="27" cy="10" r="4" fill="grey"/>
  <circle cx="44" cy="10" r="4" fill="grey"/>
  <text id="project-name" x="70px" y="14" text-anchor="middle" fill="var(--style-text)" font-size="11">zed</text>

  <path id="status" d="M0 311H460V323C460 327.418 456.418 331 452 331H8.00001C3.58173 331 0 327.418 0 323V311Z" fill="var(--style-status-bar-background, var(--style-status-bar))" />

  <path id="error-icon" fill-rule="evenodd" clip-rule="evenodd" d="M14.4246 316.011C15.5636 316.082 16.6314 316.651 17.4145 317.434C18.3399 318.431 18.8382 319.641 18.8382 321.065C18.8382 322.204 18.4111 323.272 17.6992 324.197C16.9873 325.051 15.9907 325.692 14.8517 325.906C13.7127 326.119 12.5737 325.977 11.5771 325.407C10.5805 324.838 9.7974 323.984 9.37027 322.916C8.94315 321.848 8.87196 320.638 9.2279 319.57C9.58384 318.431 10.2245 317.506 11.2211 316.865C12.1466 316.224 13.2856 315.939 14.4246 316.011ZM14.7805 325.194C15.706 324.98 16.5602 324.482 17.2009 323.699C17.7704 322.916 18.1263 321.99 18.0551 320.994C18.0551 319.855 17.628 318.716 16.845 317.933C16.1331 317.221 15.2788 316.794 14.2822 316.723C13.3568 316.651 12.3601 316.865 11.5771 317.434C10.794 318.004 10.2245 318.787 9.93977 319.784C9.65502 320.709 9.65502 321.706 10.0821 322.631C10.5093 323.557 11.15 324.268 12.0042 324.767C12.8585 325.265 13.8551 325.407 14.7805 325.194V325.194ZM13.9263 320.638L15.6348 318.858L16.1331 319.356L14.4246 321.136L16.1331 322.916L15.6348 323.414L13.9263 321.634L12.2178 323.414L11.7195 322.916L13.428 321.136L11.7195 319.356L12.2178 318.858L13.9263 320.638V320.638Z" fill="var(--style-error, var(--style-text))" />
  <text id="error-count" font-size="10" fill="var(--style-text)">
    <tspan x="21.9787" y="325">0</tspan>
  </text>

  <path id="warn-icon" fill-rule="evenodd" clip-rule="evenodd" d="M37.0462 316H37.7231L42.7538 325.431L42.4154 326H32.3385L32 325.431L37.0462 316ZM37.3846 316.985L32.9846 325.231H41.7692L37.3846 316.985ZM37.8654 324.462V323.692H36.9038V324.462H37.8654ZM36.9038 322.923V319.846H37.8654V322.923H36.9038Z" fill="var(--style-warning, var(--style-text))" />
  <text id="warn-count" font-size="10" fill="var(--style-text)">
    <tspan x="46.1748" y="325">0</tspan>
  </text>

  <text id="file-type" x="100%" y="324" transform="translate(-9, 0)" text-anchor="end" font-size="10" fill="#FFFFFF">JavaScript</text>

  <text fill="var(--style-text)" font-size="12.5" font-family="'SFMono-Regular',Consolas,'Liberation Mono',Menlo,Courier,monospace" letter-spacing="0.5">
    <tspan x="10" y="50" dy="12.5">
      <tspan fill="var(--style-syntax-keyword-color)" font-style="var(--style-syntax-keyword-style)">const</tspan>
      <tspan fill="#F8F8F2">&#160;btn&#160;</tspan>
      <tspan fill="#F92672">=</tspan>
      <tspan fill="#F8F8F2">&#160;document.</tspan>
      <tspan fill="#A6E22E">getElementById</tspan>
      <tspan fill="#F8F8F2">(</tspan>
      <tspan fill="#E6DB74">&apos;btn&apos;</tspan>
      <tspan fill="#F8F8F2">);</tspan>
    </tspan>
    <tspan x="10" y="67" dy="12.5">
      <tspan fill="var(--style-syntax-keyword-color)" font-style="italic">let</tspan>
      <tspan fill="#F8F8F2">&#160;count&#160;</tspan>
      <tspan fill="#F92672">=</tspan>
      <tspan fill="#F8F8F2">&#160;</tspan>
      <tspan fill="#AE81FF">0</tspan>
      <tspan fill="#F8F8F2">;</tspan>
    </tspan>
    <tspan x="10" y="86" dy="12.5">
      <tspan fill="#F8F8F2"></tspan>
    </tspan>
    <tspan x="10" y="101" dy="12.5">
      <tspan fill="var(--style-syntax-keyword-color)" font-style="italic">function</tspan>
      <tspan fill="#F8F8F2">&#160;</tspan>
      <tspan fill="#A6E22E">render</tspan>
      <tspan fill="#F8F8F2">()&#160;{</tspan>
    </tspan>
    <tspan x="10" y="118" dy="12.5">
      <tspan fill="#F8F8F2">&#160;&#160;btn.innerText&#160;</tspan>
      <tspan fill="#F92672">=</tspan>
      <tspan fill="#F8F8F2">&#160;</tspan>
      <tspan fill="#E6DB74">`Count:&#160;</tspan>
      <tspan fill="#F92672">${</tspan>
      <tspan fill="#F8F8F2">count</tspan>
      <tspan fill="#F92672">}</tspan>
      <tspan fill="#E6DB74">`</tspan>
      <tspan fill="#F8F8F2">;</tspan>
    </tspan>
    <tspan x="10" y="135" dy="12.5">
      <tspan fill="#F8F8F2">}</tspan>
    </tspan>
    <tspan x="10" y="160" dy="12.5">
      <tspan fill="#F8F8F2"></tspan>
    </tspan>
    <tspan x="10" y="169" dy="12.5">
      <tspan fill="#F8F8F2">btn.</tspan>
      <tspan fill="#A6E22E">addEventListener</tspan>
      <tspan fill="#F8F8F2">(</tspan>
      <tspan fill="#E6DB74">&apos;click&apos;</tspan>
      <tspan fill="#F8F8F2">,&#160;()&#160;</tspan>
      <tspan fill="var(--style-syntax-keyword-color)" font-style="italic">=&gt;</tspan>
      <tspan fill="#F8F8F2">&#160;{</tspan>
    </tspan>
    <tspan x="10" y="186" dy="12.5">
      <tspan fill="#F8F8F2">&#160;&#160;</tspan>
      <tspan fill="#88846F">//&#160;Count&#160;from&#160;1&#160;to&#160;10.</tspan>
    </tspan>
    <tspan x="10" y="203" dy="12.5">
      <tspan fill="#F8F8F2">&#160;&#160;</tspan>
      <tspan fill="#F92672">if</tspan>
      <tspan fill="#F8F8F2">&#160;(count&#160;</tspan>
      <tspan fill="#F92672">&lt;</tspan>
      <tspan fill="#F8F8F2">&#160;</tspan>
      <tspan fill="#AE81FF">10</tspan>
      <tspan fill="#F8F8F2">)&#160;{</tspan>
    </tspan>
    <tspan x="10" y="220" dy="12.5">
      <tspan fill="#F8F8F2">&#160;&#160;&#160;&#160;count&#160;</tspan>
      <tspan fill="#F92672">+=</tspan>
      <tspan fill="#F8F8F2">&#160;</tspan>
      <tspan fill="#AE81FF">1</tspan>
      <tspan fill="#F8F8F2">;</tspan>
    </tspan>
    <tspan x="10" y="237" dy="12.5">
      <tspan fill="#F8F8F2">&#160;&#160;&#160;&#160;</tspan>
      <tspan fill="#A6E22E">render</tspan>
      <tspan fill="#F8F8F2">();</tspan>
    </tspan>
    <tspan x="10" y="254" dy="12.5">
      <tspan fill="#F8F8F2">&#160;&#160;}</tspan>
    </tspan>
    <tspan x="10" y="271" dy="12.5">
      <tspan fill="#F8F8F2">});</tspan>
    </tspan>
    <tspan x="10" y="288" dy="12.5">
      <tspan fill="#F8F8F2"></tspan>
    </tspan>
  </text>
</svg>
